<svg width="12" height="12" viewBox="0 0 12 12" fill="none" xmlns="http://www.w3.org/2000/svg">
<circle cx="6" cy="6" r="6" fill="white"/>
<path fill-rule="evenodd" clip-rule="evenodd" d="M8.28433 4.15002C8.31284 4.12155 8.33546 4.08774 8.3509 4.05053C8.36634 4.01332 8.3743 3.97343 8.37432 3.93314C8.37435 3.89286 8.36644 3.85296 8.35104 3.81573C8.33565 3.7785 8.31307 3.74466 8.2846 3.71616C8.25613 3.68765 8.22232 3.66503 8.18511 3.64959C8.1479 3.63415 8.10801 3.62619 8.06772 3.62617C8.02743 3.62614 7.98753 3.63405 7.9503 3.64945C7.91307 3.66484 7.87924 3.68742 7.85073 3.71589L6.0006 5.56602L4.151 3.71589C4.09343 3.65832 4.01535 3.62598 3.93393 3.62598C3.85252 3.62598 3.77443 3.65832 3.71687 3.71589C3.6593 3.77346 3.62695 3.85154 3.62695 3.93296C3.62695 4.01437 3.6593 4.09245 3.71687 4.15002L5.567 5.99962L3.71687 7.84922C3.68836 7.87773 3.66575 7.91157 3.65032 7.94881C3.63489 7.98606 3.62695 8.02598 3.62695 8.06629C3.62695 8.1066 3.63489 8.14652 3.65032 8.18376C3.66575 8.22101 3.68836 8.25485 3.71687 8.28335C3.77443 8.34092 3.85252 8.37327 3.93393 8.37327C3.97424 8.37327 4.01416 8.36533 4.05141 8.3499C4.08865 8.33447 4.12249 8.31186 4.151 8.28335L6.0006 6.43322L7.85073 8.28335C7.9083 8.34085 7.98635 8.37313 8.06772 8.37308C8.14909 8.37303 8.2271 8.34066 8.2846 8.28309C8.3421 8.22552 8.37437 8.14747 8.37432 8.0661C8.37427 7.98473 8.3419 7.90672 8.28433 7.84922L6.4342 5.99962L8.28433 4.15002Z" fill="#676767"/>
</svg>
